<svg xmlns="http://www.w3.org/2000/svg" xmlns:xlink="http://www.w3.org/1999/xlink" version="1.1" x="0px" y="0px"
  viewBox="0 0 512 420" style="enable-background:new 0 0 512 512;" xml:space="preserve">
  <g>
    <path
      d="M256,385c71.2,0,129-57.8,129-129c0-71.3-57.8-129-129-129c-71.2,0-129,57.7-129,129C127,327.2,184.8,385,256,385z" />
    <path
      d="M85.4,294.9l-16,50.9l49.8,19.2l7.7,52.8l53.2-4.2l29.8,44.2l46.1-27l46.1,27l29.8-44.2l53.2,4.2l7.7-52.8l49.8-19.2   l-16-50.9L463,256l-36.4-39l16-50.9l-49.8-19.2l-7.7-52.8l-53.2,4.2l-29.8-44.2l-46.1,27l-46.1-26.9l-29.8,44.2l-53.2-4.2   l-7.7,52.8l-49.8,19.2l16,50.9L49,256L85.4,294.9z M256,109c81.2,0,147,65.8,147,147c0,81.2-65.8,147-147,147   c-81.2,0-147-65.8-147-147C109,174.8,174.8,109,256,109z" />
  </g>
</svg>